<?xml version="1.0" encoding="UTF-8" standalone="no"?>
<!DOCTYPE svg PUBLIC "-//W3C//DTD SVG 1.1//EN"
 "http://www.w3.org/Graphics/SVG/1.1/DTD/svg11.dtd">
<!-- Generated by graphviz version 2.40.1 (20161225.0304)
 -->
<!-- Title: dependencies Pages: 1 -->
<svg width="504pt" height="211pt"
 viewBox="0.00 0.00 504.00 211.00" xmlns="http://www.w3.org/2000/svg" xmlns:xlink="http://www.w3.org/1999/xlink">
<g id="graph0" class="graph" transform="scale(1 1) rotate(0) translate(4 207)">
<title>dependencies</title>
<polygon fill="#ffffff" stroke="transparent" points="-4,4 -4,-207 500,-207 500,4 -4,4"/>
<text text-anchor="start" x="227.0091" y="-42.4" font-family="sans-serif" font-weight="bold" font-size="14.00" fill="#000000">Legend</text>
<polygon fill="#ffffb3" stroke="transparent" points="14,-10 14,-30 34,-30 34,-10 14,-10"/>
<text text-anchor="start" x="37.629" y="-15.4" font-family="sans-serif" font-size="14.00" fill="#000000"> &#160;Declarations</text>
<polygon fill="#8dd3c7" stroke="transparent" points="127,-10 127,-30 147,-30 147,-10 127,-10"/>
<text text-anchor="start" x="150.7251" y="-15.4" font-family="sans-serif" font-size="14.00" fill="#000000"> &#160;Module</text>
<polygon fill="#80b1d3" stroke="transparent" points="213,-10 213,-30 233,-30 233,-10 213,-10"/>
<text text-anchor="start" x="236.7812" y="-15.4" font-family="sans-serif" font-size="14.00" fill="#000000"> &#160;Bootstrap</text>
<polygon fill="#fdb462" stroke="transparent" points="310,-10 310,-30 330,-30 330,-10 310,-10"/>
<text text-anchor="start" x="333.6732" y="-15.4" font-family="sans-serif" font-size="14.00" fill="#000000"> &#160;Providers</text>
<polygon fill="#fb8072" stroke="transparent" points="406,-10 406,-30 426,-30 426,-10 406,-10"/>
<text text-anchor="start" x="429.7258" y="-15.4" font-family="sans-serif" font-size="14.00" fill="#000000"> &#160;Exports</text>
<g id="clust1" class="cluster">
<title>cluster_NewsModule</title>
<polygon fill="none" stroke="#000000" stroke-dasharray="1,5" points="56.5,-70 56.5,-195 439.5,-195 439.5,-70 56.5,-70"/>
</g>
<g id="clust3" class="cluster">
<title>cluster_NewsModule_imports</title>
<polygon fill="none" stroke="#000000" points="212.5,-78 212.5,-130 431.5,-130 431.5,-78 212.5,-78"/>
</g>
<g id="clust6" class="cluster">
<title>cluster_NewsModule_providers</title>
<polygon fill="none" stroke="#000000" points="64.5,-78 64.5,-130 204.5,-130 204.5,-78 64.5,-78"/>
</g>
<!-- CoreModule -->
<g id="node1" class="node">
<title>CoreModule</title>
<polygon fill="#8dd3c7" stroke="#000000" points="423.7619,-122 420.7619,-126 399.7619,-126 396.7619,-122 337.2381,-122 337.2381,-86 423.7619,-86 423.7619,-122"/>
<text text-anchor="middle" x="380.5" y="-99.8" font-family="Times,serif" font-size="14.00" fill="#000000">CoreModule</text>
</g>
<!-- NewsModule -->
<g id="node3" class="node">
<title>NewsModule</title>
<polygon fill="#8dd3c7" stroke="#000000" points="315.4232,-187 312.4232,-191 291.4232,-191 288.4232,-187 223.5768,-187 223.5768,-151 315.4232,-151 315.4232,-187"/>
<text text-anchor="middle" x="269.5" y="-164.8" font-family="Times,serif" font-size="14.00" fill="#000000">NewsModule</text>
</g>
<!-- CoreModule&#45;&gt;NewsModule -->
<g id="edge1" class="edge">
<title>CoreModule&#45;&gt;NewsModule</title>
<path fill="none" stroke="#000000" d="M380.5,-122.1061C380.5,-141.3391 380.5,-169 380.5,-169 380.5,-169 325.2888,-169 325.2888,-169"/>
<polygon fill="#000000" stroke="#000000" points="325.2888,-165.5001 315.2888,-169 325.2888,-172.5001 325.2888,-165.5001"/>
</g>
<!-- SharedModule -->
<g id="node2" class="node">
<title>SharedModule</title>
<polygon fill="#8dd3c7" stroke="#000000" points="318.9231,-122 315.9231,-126 294.9231,-126 291.9231,-122 220.0769,-122 220.0769,-86 318.9231,-86 318.9231,-122"/>
<text text-anchor="middle" x="269.5" y="-99.8" font-family="Times,serif" font-size="14.00" fill="#000000">SharedModule</text>
</g>
<!-- SharedModule&#45;&gt;NewsModule -->
<g id="edge2" class="edge">
<title>SharedModule&#45;&gt;NewsModule</title>
<path fill="none" stroke="#000000" d="M269.5,-122.1061C269.5,-122.1061 269.5,-140.991 269.5,-140.991"/>
<polygon fill="#000000" stroke="#000000" points="266.0001,-140.9909 269.5,-150.991 273.0001,-140.991 266.0001,-140.9909"/>
</g>
<!-- NewsService -->
<g id="node4" class="node">
<title>NewsService</title>
<ellipse fill="#fdb462" stroke="#000000" cx="134.5" cy="-104" rx="61.9538" ry="18"/>
<text text-anchor="middle" x="134.5" y="-99.8" font-family="Times,serif" font-size="14.00" fill="#000000">NewsService</text>
</g>
<!-- NewsService&#45;&gt;NewsModule -->
<g id="edge3" class="edge">
<title>NewsService&#45;&gt;NewsModule</title>
<path fill="none" stroke="#000000" d="M134.5,-122.1061C134.5,-141.3391 134.5,-169 134.5,-169 134.5,-169 213.4182,-169 213.4182,-169"/>
<polygon fill="#000000" stroke="#000000" points="213.4183,-172.5001 223.4182,-169 213.4182,-165.5001 213.4183,-172.5001"/>
</g>
</g>
</svg>
